<?xml version="1.0" encoding="UTF-8"?>
<svg version="1.1" xmlns="http://www.w3.org/2000/svg" width="295" height="278">
<path d="M0 0 C0.27714844 0.56589844 0.55429688 1.13179688 0.83984375 1.71484375 C1.38318359 2.81505859 1.38318359 2.81505859 1.9375 3.9375 C2.29714844 4.66839844 2.65679687 5.39929688 3.02734375 6.15234375 C3.86371827 7.96249027 3.86371827 7.96249027 5 9 C7.67058851 9.14115161 10.32432238 9.04247107 13 9 C14.65 6.03 16.3 3.06 18 0 C26.13278997 -0.78199904 33.37763771 1.82105196 40.1015625 6.4453125 C41.45517108 7.56797365 42.73910287 8.77412779 44 10 C43.855625 10.70125 43.71125 11.4025 43.5625 12.125 C43.2840625 13.548125 43.2840625 13.548125 43 15 C42.773125 16.010625 42.54625 17.02125 42.3125 18.0625 C41.84167271 20.9160326 41.84167271 20.9160326 42.5625 23.3125 C43.97134156 25.27370886 43.97134156 25.27370886 46.875 25.875 C49.90616019 26.24800522 49.90616019 26.24800522 52 25 C55.0515945 23.47420275 56.78317335 23.9977726 60 25 C61.61541333 27.2443147 62.65528436 29.02095123 63.75 31.5 C64.04656494 32.12986816 64.34312988 32.75973633 64.64868164 33.40869141 C66.84151298 38.22222362 68.19186245 42.79200247 69 48 C66.44177362 50.11967328 64.23772609 51.89434396 61.1875 53.25 C58.8683952 54.74857111 58.8683952 54.74857111 58.51171875 56.859375 C58.36970862 59.08284791 58.428609 60.84491109 59 63 C61.60946239 65.18630633 63.78376542 65.92792181 67 67 C68.98176837 70.19545491 69.08086694 71.64360189 68.2421875 75.33984375 C67.79101562 76.52707031 67.33984375 77.71429688 66.875 78.9375 C66.22144531 80.71447266 66.22144531 80.71447266 65.5546875 82.52734375 C63.6850991 86.70338417 61.73104081 90.65983937 58.0625 93.5 C56 94 56 94 53.6875 93.0625 C50.06137947 91.62891747 47.73256459 92.01403954 44 93 C42.3175507 94.61441973 42.3175507 94.61441973 42 97 C42.25999616 99.97729478 42.25999616 99.97729478 43 103 C43.2784375 104.423125 43.2784375 104.423125 43.5625 105.875 C43.7790625 106.926875 43.7790625 106.926875 44 108 C37.98430491 113.84859245 29.8089875 118.3125 21.25 118.3125 C20.1775 118.209375 19.105 118.10625 18 118 C17.78085938 117.44570312 17.56171875 116.89140625 17.3359375 116.3203125 C15.67150478 112.51782799 14.74576472 110.42841803 11.0625 108.3125 C8.00540699 107.77256083 8.00540699 107.77256083 5.3125 109 C2.55922515 111.38121068 1.44070426 113.68638019 0 117 C-1 118 -1 118 -4.11328125 118.234375 C-8.38569794 117.97674183 -11.28262042 116.97036134 -15.1875 115.25 C-16.97220703 114.48429687 -16.97220703 114.48429687 -18.79296875 113.703125 C-21.84848142 112.08046541 -23.83969336 110.684181 -26 108 C-25.8125 105.6875 -25.8125 105.6875 -25 103 C-24.09308537 99.48618881 -24.09308537 99.48618881 -24 96 C-25.41666667 93.41666667 -25.41666667 93.41666667 -28 92 C-32.21411291 91.46202814 -35.18538362 92.20488641 -39 94 C-45.4992642 90.10044148 -47.70528784 82.88413648 -50 76 C-50.12781786 73.32605036 -50.04391871 70.67904143 -50 68 C-49.15115234 67.60167969 -49.15115234 67.60167969 -48.28515625 67.1953125 C-47.55167969 66.84210938 -46.81820312 66.48890625 -46.0625 66.125 C-45.33160156 65.77695313 -44.60070312 65.42890625 -43.84765625 65.0703125 C-41.83667541 64.1315023 -41.83667541 64.1315023 -41 62 C-40.74139865 57.94857881 -40.69558446 56.45662331 -43 53 C-44.175625 52.525625 -45.35125 52.05125 -46.5625 51.5625 C-50 50 -50 50 -50.81640625 48.26171875 C-51.43834707 40.59993719 -46.49644379 31.96467033 -42 26 C-41.34 25.34 -40.68 24.68 -40 24 C-37.75 24.3125 -37.75 24.3125 -35 25 C-31.97082655 25.68001853 -29.73270717 26.15842317 -26.6875 25.5 C-24.66011978 23.9781973 -24.66011978 23.9781973 -24.125 20.625 C-24.00031349 17.00909112 -24.34016952 16.00844275 -26 13 C-25.9375 11 -25.9375 11 -25 9 C-17.99440114 2.7672608 -9.39767267 -0.90362237 0 0 Z M-14 13 C-14.42053766 15.433392 -14.42053766 15.433392 -14.5 18.1875 C-14.78214538 23.9447909 -16.12955092 27.69715742 -20 32 C-25.16047211 35.93178827 -30.79829006 35.29794692 -37 35 C-37.99 37.97 -38.98 40.94 -40 44 C-38.88625 44.886875 -37.7725 45.77375 -36.625 46.6875 C-32.20586027 50.5174211 -31.15405825 53.05886603 -30.6875 58.9375 C-30.83697839 63.61529433 -32.09143819 67.15942767 -35.53515625 70.48046875 C-36.98339101 71.7027378 -38.48797815 72.85758349 -40 74 C-39.1395861 78.33229715 -39.1395861 78.33229715 -37 82 C-35.10593982 82.13255476 -33.20943588 82.23083609 -31.3125 82.3125 C-24.59119879 82.83872287 -21.27743884 84.53790396 -16.6875 89.5 C-14.92848545 93.14832647 -14.77385775 95.20675577 -14.625 99.1875 C-14.54293879 102.27172993 -14.54293879 102.27172993 -14 105 C-11.12858537 107.19938142 -9.59133197 108 -6 108 C-4.59784007 106.50168052 -4.59784007 106.50168052 -3.1875 104.625 C-0.65678217 101.60643295 1.03291306 99.85009006 5 99 C10.63070621 98.55311855 14.16957542 98.77971695 19 102 C20.84446048 103.91259358 22.39223246 105.87207237 24 108 C28.33229715 107.1395861 28.33229715 107.1395861 32 105 C32.13284675 103.29365736 32.23098129 101.58456374 32.3125 99.875 C32.83407293 93.59982567 34.28184574 89.47104933 39.0625 85.125 C42.59601761 83.0732801 45.50892655 82.92515127 49.5 82.8125 C52.40515346 82.6478257 52.40515346 82.6478257 55 82 C57.43811058 79.29485442 57.43811058 79.29485442 58 76 C57.26151551 72.84736315 57.26151551 72.84736315 54.625 71.1875 C51.16891662 68.30743052 49.3743417 65.56398426 48.71484375 61.046875 C48.50728502 56.31814571 49.32673566 53.00989651 52 49 C53.91259358 47.15553952 55.87207237 45.60776754 58 44 C57.01 41.03 56.02 38.06 55 35 C54.27554688 35.03480469 53.55109375 35.06960937 52.8046875 35.10546875 C42.78705055 35.38596258 42.78705055 35.38596258 38 32 C33.84744284 27.51074902 32.86659881 24.33910076 32.9375 18.3125 C32.94652344 17.31863281 32.95554687 16.32476562 32.96484375 15.30078125 C32.97644531 14.54152344 32.98804688 13.78226563 33 13 C29.16972859 10.7240406 29.16972859 10.7240406 24.875 10 C22.77550985 10.9527767 22.77550985 10.9527767 21.1875 13.375 C18.36410304 16.76307635 16.22434378 17.75347233 12 19 C5.96067283 19.2630369 1.70475032 17.92062527 -3 14 C-4 12.66666667 -5 11.33333333 -6 10 C-9.87297078 10 -11.1286064 10.35529537 -14 13 Z " fill="#010101" transform="translate(137,71)"/>
<path d="M0 0 C2.42574727 1.22150005 4.78820527 2.4930066 7.12109375 3.8828125 C7.12109375 4.5428125 7.12109375 5.2028125 7.12109375 5.8828125 C7.78109375 5.8828125 8.44109375 5.8828125 9.12109375 5.8828125 C13.4732573 10.61460403 14.96688105 15.83606928 15.24609375 22.14453125 C14.90947642 29.51855472 12.39940427 34.2925548 7.1328125 39.375 C2.22957335 43.05004915 -1.76410151 44.29804148 -7.87890625 44.2578125 C-9.05453125 44.26554687 -10.23015625 44.27328125 -11.44140625 44.28125 C-17.81015013 43.54305469 -21.7134057 40.59640523 -25.87890625 35.8828125 C-30.29196621 29.87614756 -31.63848632 25.35653782 -30.87890625 17.8828125 C-28.85967289 9.82072638 -24.80854268 5.1606726 -17.78125 0.8984375 C-12.19335758 -2.08483156 -5.86593589 -2.27633333 0 0 Z M-17.69140625 12.3828125 C-21.067951 16.24172078 -21.15745086 18.65484186 -21.1015625 23.62890625 C-20.67064171 27.99103428 -18.17054884 31.13977701 -14.87890625 33.8828125 C-10.03731044 35.49667777 -5.67068812 35.71897737 -1.06640625 33.5703125 C2.7379617 30.63551437 4.67316092 28.80855101 5.4296875 23.8671875 C5.68574377 19.42887883 5.39169544 16.526822 2.62109375 12.9453125 C-3.59180046 6.64449998 -11.08679535 6.51204726 -17.69140625 12.3828125 Z " fill="#010101" transform="translate(153.87890625,108.1171875)"/>
<path d="M0 0 C1.10794922 -0.05994141 1.10794922 -0.05994141 2.23828125 -0.12109375 C4.6875 0.4375 4.6875 0.4375 7.22265625 2.92578125 C11.64758206 6.88618486 17.18149476 6.10296231 22.8125 6.0625 C24.96097696 6.0625 27.10949966 6.07500734 29.2578125 6.1015625 C30.20414551 6.09592285 31.15047852 6.0902832 32.12548828 6.08447266 C35.25020924 6.51503741 36.56230106 7.09821694 38.6875 9.4375 C39.18920898 12.22485352 39.18920898 12.22485352 39.18359375 15.56640625 C39.18423828 16.76587891 39.18488281 17.96535156 39.18554688 19.20117188 C39.16556641 20.45478516 39.14558594 21.70839844 39.125 23 C39.13208984 24.25748047 39.13917969 25.51496094 39.14648438 26.81054688 C39.09804899 33.73680704 39.09804899 33.73680704 38.6875 36.4375 C35.6875 38.4375 35.6875 38.4375 33.0625 38.125 C30.6875 37.4375 30.6875 37.4375 29.6875 36.4375 C29.60080568 34.9487814 29.58046506 33.456055 29.58984375 31.96484375 C29.59306641 31.06572266 29.59628906 30.16660156 29.59960938 29.24023438 C29.61217773 27.82194336 29.61217773 27.82194336 29.625 26.375 C29.62951172 25.42560547 29.63402344 24.47621094 29.63867188 23.49804688 C29.6504989 21.14446935 29.66697975 18.79101523 29.6875 16.4375 C26.62211787 16.47059048 23.56392448 16.53784241 20.5 16.625 C19.20352539 16.63370117 19.20352539 16.63370117 17.88085938 16.64257812 C13.33692155 16.79926564 11.34330935 16.87284904 7.79296875 19.9296875 C7.09816406 20.75726563 6.40335938 21.58484375 5.6875 22.4375 C2.07789015 23.40435978 -0.36242671 23.65844728 -4 22.8125 C-7.44960744 20.76138206 -9.53019754 18.00210493 -11.3125 14.4375 C-11.91218751 9.16024989 -10.58414725 6.55042798 -7.3125 2.4375 C-4.3041623 0.43194153 -3.43541351 0.10086706 0 0 Z M-0.3125 9.4375 C-0.6425 10.7575 -0.9725 12.0775 -1.3125 13.4375 C-0.3225 13.9325 -0.3225 13.9325 0.6875 14.4375 C1.3475 14.1075 2.0075 13.7775 2.6875 13.4375 C2.3575 12.1175 2.0275 10.7975 1.6875 9.4375 C1.0275 9.4375 0.3675 9.4375 -0.3125 9.4375 Z " fill="#040404" transform="translate(86.3125,25.5625)"/>
<path d="M0 0 C3.05357079 1.61320721 5.23833566 3.03060902 7.375 5.75 C8.34828567 9.2538284 8.81364296 12.45256765 8 16 C6.6628418 17.48974609 6.6628418 17.48974609 5.01171875 18.9609375 C0.55223572 23.89515673 1.2217103 29.47537896 1.3125 35.8125 C1.32139886 38.06899625 1.31812827 40.32558413 1.30078125 42.58203125 C1.31878784 44.07053589 1.31878784 44.07053589 1.3371582 45.58911133 C1.225896 46.38470459 1.11463379 47.18029785 1 48 C-2.40557452 50.27038301 -3.65719174 50.25671558 -7.65625 50.265625 C-8.76097656 50.26820312 -9.86570313 50.27078125 -11.00390625 50.2734375 C-12.15761719 50.26570313 -13.31132812 50.25796875 -14.5 50.25 C-16.23056641 50.26160156 -16.23056641 50.26160156 -17.99609375 50.2734375 C-19.65318359 50.26957031 -19.65318359 50.26957031 -21.34375 50.265625 C-22.35630859 50.26336914 -23.36886719 50.26111328 -24.41210938 50.25878906 C-27 50 -27 50 -30 48 C-30.3125 45.5 -30.3125 45.5 -30 43 C-26.90267129 39.90267129 -24.44694906 40.0112186 -20.109375 39.90234375 C-18.65621382 39.9080173 -17.20307791 39.92094113 -15.75 39.9375 C-13.1925 39.958125 -10.635 39.97875 -8 40 C-8 34.06 -8 28.12 -8 22 C-9.32 21.34 -10.64 20.68 -12 20 C-14.77661937 15.97868919 -15.60423783 12.70873556 -14.765625 7.96875 C-12.2748722 1.56395709 -6.5787317 -1.19613304 0 0 Z M-4 9 C-4.66 10.32 -5.32 11.64 -6 13 C-4.68 13.33 -3.36 13.66 -2 14 C-2 12.68 -2 11.36 -2 10 C-2.66 9.67 -3.32 9.34 -4 9 Z " fill="#020202" transform="translate(242,59)"/>
<path d="M0 0 C3.90568673 0.11877759 6.13091563 0.33688524 9.55859375 2.37890625 C12.4031584 5.48206769 13.45019017 7.31864551 13.99609375 11.50390625 C13.42357887 16.2748636 10.95677257 19.29322743 7.62109375 22.62890625 C3.02446732 23.62484198 0.67919436 24.02079536 -3.75390625 22.37890625 C-6.37890625 20.62890625 -6.37890625 20.62890625 -8.37890625 17.62890625 C-10.40167306 17.12269112 -10.40167306 17.12269112 -12.73046875 17.1171875 C-13.58125 17.08173828 -14.43203125 17.04628906 -15.30859375 17.00976562 C-16.19804687 16.98720703 -17.0875 16.96464844 -18.00390625 16.94140625 C-19.3496875 16.89016602 -19.3496875 16.89016602 -20.72265625 16.83789062 C-22.94128163 16.75528223 -25.15950565 16.68617906 -27.37890625 16.62890625 C-27.35534058 17.52198486 -27.35534058 17.52198486 -27.33129883 18.43310547 C-27.26904824 21.12327628 -27.22994842 23.81329582 -27.19140625 26.50390625 C-27.15370117 27.90962891 -27.15370117 27.90962891 -27.11523438 29.34375 C-27.10073242 30.68759766 -27.10073242 30.68759766 -27.0859375 32.05859375 C-27.06237183 33.29971924 -27.06237183 33.29971924 -27.03833008 34.56591797 C-27.15072021 35.2467041 -27.26311035 35.92749023 -27.37890625 36.62890625 C-30.37890625 38.62890625 -30.37890625 38.62890625 -33.00390625 38.31640625 C-35.37890625 37.62890625 -35.37890625 37.62890625 -36.37890625 36.62890625 C-36.71625676 32.17844173 -36.703929 27.71551145 -36.75390625 23.25390625 C-36.79128906 21.99578125 -36.82867187 20.73765625 -36.8671875 19.44140625 C-36.87878906 18.23742187 -36.89039063 17.0334375 -36.90234375 15.79296875 C-36.93207275 14.12935303 -36.93207275 14.12935303 -36.96240234 12.43212891 C-36.37890625 9.62890625 -36.37890625 9.62890625 -34.17797852 7.76464844 C-31.23267374 6.56957144 -29.23230965 6.27313721 -26.0703125 6.29296875 C-25.07580078 6.28007812 -24.08128906 6.2671875 -23.05664062 6.25390625 C-20.98370924 6.25390625 -18.91076291 6.26168959 -16.83789062 6.27734375 C-8.54340851 6.14849743 -6.92595032 1.83099836 0 0 Z M0.62109375 9.62890625 C0.29109375 10.94890625 -0.03890625 12.26890625 -0.37890625 13.62890625 C1.27109375 13.29890625 2.92109375 12.96890625 4.62109375 12.62890625 C4.29109375 11.63890625 3.96109375 10.64890625 3.62109375 9.62890625 C2.63109375 9.62890625 1.64109375 9.62890625 0.62109375 9.62890625 Z " fill="#040404" transform="translate(203.37890625,25.37109375)"/>
<path d="M0 0 C3.09133781 2.06089188 4.5494329 3.5523199 5.66015625 7.12109375 C6.41340695 11.45777014 6.25584733 13.50594997 4.1875 17.5 C2 20 2 20 0 21 C-0.33 27.27 -0.66 33.54 -1 40 C1.475 39.505 1.475 39.505 4 39 C5.99696673 38.86191188 7.99849908 38.78063522 10 38.75 C11.010625 38.72421875 12.02125 38.6984375 13.0625 38.671875 C16.44826279 39.05007191 18.30360839 39.94351292 21 42 C21.5 44.5625 21.5 44.5625 21 47 C17.59442548 49.27038301 16.34280826 49.25671558 12.34375 49.265625 C11.23902344 49.26820312 10.13429688 49.27078125 8.99609375 49.2734375 C7.84238281 49.26570313 6.68867187 49.25796875 5.5 49.25 C4.34628906 49.25773437 3.19257812 49.26546875 2.00390625 49.2734375 C0.89917969 49.27085938 -0.20554687 49.26828125 -1.34375 49.265625 C-2.35630859 49.26336914 -3.36886719 49.26111328 -4.41210938 49.25878906 C-7 49 -7 49 -10 47 C-10.3371582 44.58911133 -10.3371582 44.58911133 -10.30078125 41.58203125 C-10.31334961 39.94717773 -10.31334961 39.94717773 -10.32617188 38.27929688 C-10.31713401 35.98755333 -10.29650176 33.69582308 -10.26367188 31.40429688 C-10.28011003 24.05496968 -10.28011003 24.05496968 -14.00390625 17.98828125 C-14.54523193 17.46355225 -15.08655762 16.93882324 -15.64428711 16.39819336 C-17 15 -17 15 -17.7265625 12.5234375 C-17.4884661 7.48678297 -16.8959381 4.57127659 -13 1 C-8.61049021 -1.66867472 -4.85236242 -1.30607259 0 0 Z M-6 8 C-6.99 8.495 -6.99 8.495 -8 9 C-7.67 10.32 -7.34 11.64 -7 13 C-6.01 13 -5.02 13 -4 13 C-3.67 12.01 -3.34 11.02 -3 10 C-3.99 9.34 -4.98 8.68 -6 8 Z " fill="#020202" transform="translate(59,60)"/>
<path d="M0 0 C1.20269531 -0.00257813 2.40539062 -0.00515625 3.64453125 -0.0078125 C4.90652344 -0.00007812 6.16851562 0.00765625 7.46875 0.015625 C8.73074219 0.00789062 9.99273437 0.00015625 11.29296875 -0.0078125 C12.49566406 -0.00523437 13.69835937 -0.00265625 14.9375 0 C16.04544922 0.00225586 17.15339844 0.00451172 18.29492188 0.00683594 C20.96875 0.265625 20.96875 0.265625 22.96875 2.265625 C23.21875 4.765625 23.21875 4.765625 22.96875 7.265625 C20.96875 9.265625 20.96875 9.265625 18.90576172 9.49267578 C17.66463623 9.47696533 17.66463623 9.47696533 16.3984375 9.4609375 C15.05458984 9.45126953 15.05458984 9.45126953 13.68359375 9.44140625 C12.74644531 9.42464844 11.80929688 9.40789062 10.84375 9.390625 C9.42642578 9.37708984 9.42642578 9.37708984 7.98046875 9.36328125 C5.64312173 9.33967168 3.30590451 9.30379994 0.96875 9.265625 C0.96875 15.535625 0.96875 21.805625 0.96875 28.265625 C2.28875 28.925625 3.60875 29.585625 4.96875 30.265625 C7.68218699 33.35332916 8.21750262 35.76784544 8.03125 39.765625 C7.46140101 43.44207011 6.93078616 44.30901225 4.34375 47.265625 C0.5572024 49.50950506 -1.62857463 50.34286492 -6.03125 50.265625 C-10.00972563 48.74349566 -12.6378585 46.85571225 -15.03125 43.265625 C-15.4375 41.25 -15.4375 41.25 -15.53125 39.015625 C-15.60859375 37.92507812 -15.60859375 37.92507812 -15.6875 36.8125 C-14.94055073 33.91362543 -14.14678869 33.30472158 -12.046875 31.26953125 C-7.57555811 26.36247287 -8.21599125 20.77959853 -8.28125 14.453125 C-8.27362222 12.19657338 -8.25839384 9.94003043 -8.234375 7.68359375 C-8.24114258 6.69125732 -8.24791016 5.6989209 -8.25488281 4.67651367 C-7.77202569 -0.52896024 -4.3676339 0.0088928 0 0 Z M-5.03125 36.265625 C-5.03125 37.585625 -5.03125 38.905625 -5.03125 40.265625 C-4.04125 40.265625 -3.05125 40.265625 -2.03125 40.265625 C-2.03125 38.945625 -2.03125 37.625625 -2.03125 36.265625 C-3.02125 36.265625 -4.01125 36.265625 -5.03125 36.265625 Z " fill="#010101" transform="translate(57.03125,150.734375)"/>
<path d="M0 0 C1.20269531 -0.00257813 2.40539062 -0.00515625 3.64453125 -0.0078125 C4.90652344 -0.00007812 6.16851562 0.00765625 7.46875 0.015625 C8.73074219 0.00789062 9.99273437 0.00015625 11.29296875 -0.0078125 C12.49566406 -0.00523437 13.69835937 -0.00265625 14.9375 0 C16.04544922 0.00225586 17.15339844 0.00451172 18.29492188 0.00683594 C20.96875 0.265625 20.96875 0.265625 22.96875 2.265625 C23.19238281 4.67651367 23.19238281 4.67651367 23.171875 7.68359375 C23.18347656 8.77349609 23.19507813 9.86339844 23.20703125 10.98632812 C23.21477773 13.27799502 23.2072316 15.56977005 23.18359375 17.86132812 C23.24726763 25.22189185 23.24726763 25.22189185 26.96875 31.31640625 C27.78085938 32.04790894 27.78085938 32.04790894 28.609375 32.79418945 C30.28486938 34.60780379 30.49751612 35.83633031 30.71875 38.265625 C30.36738265 42.36224884 28.64301274 44.99562841 25.8125 47.90625 C22.67697892 50.21803249 19.80916946 50.79454504 15.96875 50.265625 C11.61374905 48.12920944 8.73395005 45.83437806 6.96875 41.265625 C6.7551576 36.88698089 7.52219153 33.95707037 9.90625 30.265625 C11.96875 28.265625 11.96875 28.265625 13.96875 28.265625 C13.96875 21.995625 13.96875 15.725625 13.96875 9.265625 C12.54820312 9.28882813 11.12765625 9.31203125 9.6640625 9.3359375 C7.80729691 9.35469271 5.95052565 9.37289317 4.09375 9.390625 C2.68802734 9.41576172 2.68802734 9.41576172 1.25390625 9.44140625 C-0.08994141 9.45107422 -0.08994141 9.45107422 -1.4609375 9.4609375 C-2.28835449 9.47141113 -3.11577148 9.48188477 -3.96826172 9.49267578 C-6.03125 9.265625 -6.03125 9.265625 -8.03125 7.265625 C-8.28125 4.765625 -8.28125 4.765625 -8.03125 2.265625 C-5.30890398 -0.45672102 -3.80362127 0.00774443 0 0 Z M16.96875 36.265625 C16.96875 37.585625 16.96875 38.905625 16.96875 40.265625 C18.28875 39.935625 19.60875 39.605625 20.96875 39.265625 C20.63875 38.275625 20.30875 37.285625 19.96875 36.265625 C18.97875 36.265625 17.98875 36.265625 16.96875 36.265625 Z " fill="#000000" transform="translate(220.03125,150.734375)"/>
<path d="M0 0 C2.5 -0.3125 2.5 -0.3125 5 0 C7 2 7 2 7.22705078 4.06298828 C7.21134033 5.30411377 7.21134033 5.30411377 7.1953125 6.5703125 C7.18564453 7.91416016 7.18564453 7.91416016 7.17578125 9.28515625 C7.15902344 10.22230469 7.14226562 11.15945312 7.125 12.125 C7.11597656 13.06988281 7.10695312 14.01476562 7.09765625 14.98828125 C7.07404668 17.32562827 7.03817494 19.66284549 7 22 C13.27 22 19.54 22 26 22 C26.66 20.68 27.32 19.36 28 18 C32.08455631 15.17971112 35.30542709 14.4727061 40.1015625 15.28125 C44.09153123 16.79185545 46.14109447 20.28218894 48 24 C48.44408691 27.9079648 48.13704844 29.74548146 46.25 33.25 C42.89889879 37.34579037 41.38667774 37.84343961 36.125 38.4375 C32.83614959 38.36975215 31.06306334 37.68395372 28.5 35.625 C26 33 26 33 26 31 C25.22285645 31.01047363 24.44571289 31.02094727 23.64501953 31.03173828 C20.138379 31.07320282 16.63178994 31.09929578 13.125 31.125 C11.90167969 31.14175781 10.67835938 31.15851563 9.41796875 31.17578125 C7.66806641 31.18544922 7.66806641 31.18544922 5.8828125 31.1953125 C4.80402832 31.20578613 3.72524414 31.21625977 2.61376953 31.22705078 C0 31 0 31 -2 29 C-2.25878906 26.43383789 -2.25878906 26.43383789 -2.265625 23.22265625 C-2.26820313 22.06958984 -2.27078125 20.91652344 -2.2734375 19.72851562 C-2.26570312 18.51873047 -2.25796875 17.30894531 -2.25 16.0625 C-2.25773438 14.85658203 -2.26546875 13.65066406 -2.2734375 12.40820312 C-2.27085937 11.25384766 -2.26828125 10.09949219 -2.265625 8.91015625 C-2.26336914 7.84933838 -2.26111328 6.78852051 -2.25878906 5.69555664 C-2 3 -2 3 0 0 Z M35 24 C34.67 25.32 34.34 26.64 34 28 C35.32 28 36.64 28 38 28 C38 27.01 38 26.02 38 25 C37.01 24.67 36.02 24.34 35 24 Z " fill="#000000" transform="translate(169,196)"/>
<path d="M0 0 C2.5 0.25 2.5 0.25 4.5 2.25 C4.75878906 4.92382813 4.75878906 4.92382813 4.765625 8.28125 C4.76949219 10.08529297 4.76949219 10.08529297 4.7734375 11.92578125 C4.76570313 13.18777344 4.75796875 14.44976562 4.75 15.75 C4.76160156 17.64298828 4.76160156 17.64298828 4.7734375 19.57421875 C4.77085938 20.77691406 4.76828125 21.97960937 4.765625 23.21875 C4.76336914 24.32669922 4.76111328 25.43464844 4.75878906 26.57617188 C4.5 29.25 4.5 29.25 2.5 31.25 C-0.03442383 31.48950195 -0.03442383 31.48950195 -3.20703125 31.48828125 C-4.9230957 31.51245117 -4.9230957 31.51245117 -6.67382812 31.53710938 C-9.08783747 31.55395431 -11.50195637 31.55927654 -13.91601562 31.55273438 C-20.94966978 31.38348343 -20.94966978 31.38348343 -26.76171875 34.73046875 C-27.62216797 35.97763672 -27.62216797 35.97763672 -28.5 37.25 C-29.5 38.25 -29.5 38.25 -33.1875 38.5625 C-37.61465523 38.5068625 -40.10603233 37.15911515 -43.5 34.25 C-45.85242347 31.04214982 -45.9684209 28.15350748 -45.5 24.25 C-43.7344231 21.1896667 -41.99412245 18.74412245 -39.5 16.25 C-34.90337357 15.25406427 -32.55810061 14.85811089 -28.125 16.5 C-25.5 18.25 -25.5 18.25 -23.5 21.25 C-21.47723319 21.75621513 -21.47723319 21.75621513 -19.1484375 21.76171875 C-18.29765625 21.79716797 -17.446875 21.83261719 -16.5703125 21.86914062 C-15.68085937 21.89169922 -14.79140625 21.91425781 -13.875 21.9375 C-12.52921875 21.98874023 -12.52921875 21.98874023 -11.15625 22.04101562 C-8.93762462 22.12362402 -6.7194006 22.19272719 -4.5 22.25 C-4.51571045 21.35692139 -4.51571045 21.35692139 -4.53173828 20.44580078 C-4.57323949 17.75557657 -4.59930704 15.06541963 -4.625 12.375 C-4.64175781 11.43785156 -4.65851563 10.50070313 -4.67578125 9.53515625 C-4.68544922 8.19130859 -4.68544922 8.19130859 -4.6953125 6.8203125 C-4.71102295 5.57918701 -4.71102295 5.57918701 -4.72705078 4.31298828 C-4.36796478 1.05032517 -3.17219368 0.31721937 0 0 Z M-34.5 24.25 C-34.83 25.57 -35.16 26.89 -35.5 28.25 C-34.18 28.25 -32.86 28.25 -31.5 28.25 C-31.83 26.93 -32.16 25.61 -32.5 24.25 C-33.16 24.25 -33.82 24.25 -34.5 24.25 Z " fill="#000000" transform="translate(120.5,195.75)"/>
<path d="M0 0 C3.25620186 2.36535418 4.76176898 5.22177867 5.9375 9.0625 C6.00780695 12.36692677 5.59451589 14.11468553 4 17 C3.32332275 17.56396484 2.64664551 18.12792969 1.94946289 18.70898438 C-0.73203569 21.86029091 -0.49784316 23.93365464 -0.50390625 28.03125 C-0.51332748 28.70418091 -0.52274872 29.37711182 -0.53245544 30.07043457 C-0.56105595 32.21393483 -0.56418566 34.35632457 -0.5625 36.5 C-0.56611185 38.64351289 -0.57568304 40.78622035 -0.60325623 42.92956543 C-0.62771614 44.8741359 -0.62997752 46.8189479 -0.63110352 48.76367188 C-1.02012314 52.17654029 -1.67304449 53.54109777 -4 56 C-8.75 55.25 -8.75 55.25 -11 53 C-11.23950195 49.93066406 -11.23950195 49.93066406 -11.23828125 46.015625 C-11.25370904 44.59113639 -11.27001326 43.16665706 -11.28710938 41.7421875 C-11.30352073 39.49946628 -11.31252352 37.25742438 -11.30541992 35.01464844 C-11.30278644 32.84753108 -11.33101999 30.68246701 -11.36328125 28.515625 C-11.36626221 27.21915039 -11.36924316 25.92267578 -11.37231445 24.58691406 C-12.18658323 19.93376862 -13.83986345 18.43831651 -17 15 C-18.32505503 10.63511283 -18.42606929 8.85213858 -16.375 4.75 C-11.52157732 -0.86975258 -7.12706809 -2.32404394 0 0 Z M-8 9 C-7.67 10.32 -7.34 11.64 -7 13 C-6.01 12.67 -5.02 12.34 -4 12 C-4 11.01 -4 10.02 -4 9 C-5.32 9 -6.64 9 -8 9 Z " fill="#040404" transform="translate(152,8)"/>
<path d="M0 0 C2.4375 0.875 2.4375 0.875 4.4375 3.875 C4.67700195 6.98193359 4.67700195 6.98193359 4.67578125 10.7734375 C4.69120205 12.15365565 4.70750576 13.53386417 4.72460938 14.9140625 C4.74104989 17.08224797 4.75000089 19.24972618 4.74291992 21.41796875 C4.74029207 23.51643148 4.76846904 25.61276058 4.80078125 27.7109375 C4.80376221 28.96438965 4.80674316 30.2178418 4.80981445 31.50927734 C5.59712228 35.73091315 7.2782634 37.07990264 10.4375 39.875 C11.76365781 43.6877037 11.51511025 45.59366284 10.4375 49.5 C8.04201441 53.54238194 5.92062197 55.47287132 1.4375 56.875 C-2.68379109 56.875 -4.88198975 56.2984286 -8.375 54.125 C-10.7742664 51.65718313 -11.7843099 50.22121742 -12.5625 46.875 C-12.5 43.375 -12.5 43.375 -11.5625 39.875 C-10.31460693 38.75762451 -10.31460693 38.75762451 -9.04150391 37.61767578 C-5.84038055 34.07607446 -5.94861934 32.20769515 -5.9609375 27.4921875 C-5.95293121 26.79610382 -5.94492493 26.10002014 -5.93667603 25.38284302 C-5.91369108 23.1712946 -5.92304197 20.96159637 -5.9375 18.75 C-5.94134886 16.53161143 -5.93792169 14.31403102 -5.91690063 12.09573364 C-5.89928264 10.08847652 -5.9067727 8.08104582 -5.91552734 6.07373047 C-5.5625 2.875 -5.5625 2.875 -4.20166016 0.92236328 C-2.5625 -0.125 -2.5625 -0.125 0 0 Z M-2.5625 42.875 C-2.5625 44.195 -2.5625 45.515 -2.5625 46.875 C-1.2425 46.875 0.0775 46.875 1.4375 46.875 C1.4375 45.555 1.4375 44.235 1.4375 42.875 C0.1175 42.875 -1.2025 42.875 -2.5625 42.875 Z " fill="#020202" transform="translate(146.5625,196.125)"/>
<path d="M0 0 C3.37867819 2.17737039 5.74721377 4.12775165 7 8 C7.50322923 11.85809076 7.15609161 13.6938203 5.375 17.1875 C2.71904571 20.33270902 0.88922017 21.67766514 -3 23 C-7.41525929 22.81978534 -10.43208695 21.57682609 -14 19 C-14.66 18.01 -15.32 17.02 -16 16 C-19.2664764 15.52033472 -19.2664764 15.52033472 -23.125 15.55859375 C-24.17905029 15.53878197 -24.17905029 15.53878197 -25.25439453 15.51856995 C-27.50296988 15.4776076 -29.75113545 15.45598448 -32 15.4375 C-34.24873987 15.41373556 -36.49709223 15.38564972 -38.74560547 15.34571838 C-40.78597376 15.31014587 -42.82659846 15.29033332 -44.8671875 15.27124023 C-48 15 -48 15 -50 13 C-49.75 9.9375 -49.75 9.9375 -49 7 C-46.01737048 5.50868524 -43.26943841 5.85275114 -39.9453125 5.82421875 C-38.51170408 5.80101996 -37.07811028 5.7769026 -35.64453125 5.75195312 C-33.38417787 5.71684227 -31.1243624 5.68749621 -28.86376953 5.67407227 C-26.68195469 5.65857981 -24.50171121 5.61836779 -22.3203125 5.57421875 C-20.35989014 5.55234497 -20.35989014 5.55234497 -18.35986328 5.5300293 C-14.48669754 4.91902488 -13.41837051 3.98855252 -11 1 C-7.30374169 -1.67660085 -4.31153224 -1.05897283 0 0 Z M-7 9 C-6.67 10.32 -6.34 11.64 -6 13 C-5.01 13 -4.02 13 -3 13 C-3 11.68 -3 10.36 -3 9 C-4.32 9 -5.64 9 -7 9 Z " fill="#040404" transform="translate(262,119)"/>
<path d="M0 0 C4.70149254 2.40298507 4.70149254 2.40298507 6 5 C7.38505737 5.03758423 7.38505737 5.03758423 8.7980957 5.07592773 C12.22546416 5.17109045 15.65266461 5.27032214 19.07983398 5.37231445 C20.56286015 5.4156133 22.04593454 5.45729199 23.52905273 5.49731445 C25.66144339 5.55513958 27.79359242 5.61879832 29.92578125 5.68359375 C31.20880127 5.72025146 32.49182129 5.75690918 33.8137207 5.79467773 C37 6 37 6 40 7 C40.625 9.875 40.625 9.875 41 13 C39 15 39 15 35.91479492 15.23950195 C34.61646729 15.23909912 33.31813965 15.23869629 31.98046875 15.23828125 C30.55142285 15.25370562 29.12238621 15.2700096 27.69335938 15.28710938 C25.44176788 15.30354077 23.19085529 15.31251057 20.93920898 15.30541992 C18.76468376 15.30279224 16.59221826 15.33097528 14.41796875 15.36328125 C12.46540161 15.36775269 12.46540161 15.36775269 10.47338867 15.37231445 C6.16419575 16.15104047 4.80569401 17.73613131 2 21 C-0.91310044 22.64328743 -2.59013501 23.00872053 -5.9375 22.9375 C-9.77822133 21.76176898 -12.63464582 20.25620186 -15 17 C-16.39187467 12.73158434 -16.52983054 9.28274761 -14.8125 5.125 C-10.38870866 -0.06151398 -6.71091509 -1.61061962 0 0 Z M-6 9 C-6 10.32 -6 11.64 -6 13 C-4.68 12.67 -3.36 12.34 -2 12 C-2 11.01 -2 10.02 -2 9 C-3.32 9 -4.64 9 -6 9 Z " fill="#040404" transform="translate(39,119)"/>
</svg>
